<?xml version="1.0" standalone="no"?>
<!DOCTYPE svg PUBLIC "-//W3C//DTD SVG 20010904//EN"
 "http://www.w3.org/TR/2001/REC-SVG-20010904/DTD/svg10.dtd">
<svg version="1.0" xmlns="http://www.w3.org/2000/svg"
 width="512.000000pt" height="512.000000pt" viewBox="0 0 512.000000 512.000000"
 preserveAspectRatio="xMidYMid meet">

<g transform="translate(0.000000,512.000000) scale(0.100000,-0.100000)"
fill="#000000" stroke="none">
<path d="M2386 5109 c-223 -31 -434 -118 -618 -256 -265 -200 -442 -485 -504
-810 l-18 -93 -383 0 -382 0 -10 -37 c-6 -21 -80 -318 -166 -660 -147 -593
-155 -627 -155 -720 0 -169 43 -304 124 -400 l36 -41 0 -966 0 -966 -115 0
-115 0 0 -80 0 -80 2480 0 2480 0 0 80 0 80 -115 0 -115 0 0 420 0 420 -75 0
-75 0 0 -110 0 -110 -700 0 -700 0 0 430 0 430 698 -2 697 -3 3 -237 2 -238
75 0 75 0 0 466 0 466 33 41 c88 110 117 197 124 367 l5 125 -156 625 c-87
344 -161 642 -167 663 l-10 37 -382 0 -383 0 -18 93 c-51 268 -184 516 -379
705 -41 39 -79 72 -83 72 -9 -1 -94 -103 -94 -113 0 -3 30 -34 66 -69 147
-141 269 -347 320 -544 35 -131 44 -354 20 -489 -55 -315 -235 -593 -501 -771
-44 -30 -86 -54 -93 -54 -10 0 -12 63 -10 302 l3 301 53 18 c169 57 252 204
252 444 0 399 -255 668 -513 541 -96 -47 -176 -155 -224 -301 -34 -106 -43
-296 -19 -399 33 -141 125 -251 237 -284 l59 -17 0 -342 0 -342 -57 -16 c-103
-30 -206 -44 -328 -45 -134 0 -216 11 -322 42 l-73 21 0 388 0 388 38 6 c138
22 231 94 262 204 6 20 10 169 10 344 l0 307 -75 0 -75 0 0 -115 0 -115 -80 0
-80 0 0 115 0 115 -75 0 -75 0 0 -115 0 -115 -80 0 -80 0 0 115 0 115 -75 0
-75 0 0 -318 0 -319 31 -62 c47 -93 112 -135 242 -156 l37 -6 0 -349 c0 -273
-3 -350 -12 -350 -28 0 -188 119 -269 200 -145 144 -251 326 -305 525 -26 93
-28 114 -28 295 0 181 2 202 27 295 109 403 430 723 834 833 90 24 113 26 293
26 180 0 203 -2 293 -27 75 -20 249 -94 317 -134 6 -4 80 113 80 126 0 15
-171 98 -266 130 -49 16 -125 37 -169 46 -95 20 -332 28 -429 14z m702 -863
c102 -53 182 -267 169 -446 -14 -180 -87 -263 -230 -262 -73 1 -112 13 -150
50 -120 113 -109 428 20 600 50 67 129 90 191 58z m-758 -393 c0 -77 -4 -105
-20 -139 -31 -63 -62 -74 -217 -74 -202 0 -233 28 -233 207 l0 103 235 0 235
0 0 -97z m-1100 -56 c0 -2 -27 -246 -60 -542 -33 -296 -60 -540 -60 -542 0 -1
-176 -3 -391 -3 -367 0 -390 1 -385 18 3 9 64 254 137 545 l131 527 314 0
c173 0 314 -2 314 -3z m3290 -19 c5 -13 66 -250 135 -528 69 -278 128 -513
131 -522 5 -17 -18 -18 -385 -18 l-391 0 -4 23 c-5 20 -116 1042 -116 1060 0
4 140 7 310 7 l310 0 10 -22z m-3048 -720 c116 -171 344 -370 507 -443 l44
-19 -6 -101 c-8 -154 -56 -256 -157 -330 -78 -57 -149 -78 -251 -73 -69 3 -97
10 -145 33 -73 36 -152 113 -183 180 -29 62 -46 158 -37 208 l7 37 189 0 190
0 0 80 0 80 -180 0 c-172 0 -180 1 -180 20 0 10 14 141 30 290 17 149 30 276
30 283 0 7 18 -25 40 -70 21 -45 67 -124 102 -175z m2348 -62 c17 -153 29
-280 27 -282 -2 -3 -124 -3 -272 -2 l-267 3 47 34 c154 111 316 310 402 497
15 33 28 52 30 44 1 -8 16 -140 33 -294z m-2742 -534 c-2 -74 -8 -97 -35 -153
-39 -80 -111 -150 -191 -187 -50 -24 -69 -27 -157 -27 -88 0 -107 3 -157 27
-80 37 -152 107 -190 186 -27 54 -33 79 -36 153 l-4 89 387 0 387 0 -4 -88z
m2796 35 c19 -146 -77 -306 -224 -376 -49 -23 -67 -26 -160 -26 -96 0 -110 3
-164 29 -141 70 -226 214 -226 382 l0 44 384 0 384 0 6 -53z m934 -36 c-3 -74
-9 -99 -36 -153 -38 -79 -110 -149 -190 -186 -50 -24 -69 -27 -157 -27 -91 0
-106 3 -165 31 -146 70 -228 213 -230 397 l0 27 391 0 391 0 -4 -89z m-2508
46 c135 -30 385 -30 520 0 52 12 104 24 114 29 18 7 19 3 13 -67 -13 -180
-113 -312 -275 -364 -78 -26 -202 -17 -274 18 -135 66 -215 186 -225 337 -6
79 -5 83 13 76 10 -5 62 -17 114 -29z m-1110 -352 c32 -52 124 -129 196 -165
69 -34 174 -60 244 -60 161 0 339 92 441 228 l25 32 37 -50 c92 -124 267 -210
427 -210 161 0 339 92 442 228 l25 34 38 -52 c89 -121 269 -210 425 -210 70 0
175 26 244 60 72 36 164 113 196 164 l21 34 82 -82 c112 -113 211 -161 357
-173 70 -5 179 13 253 42 15 7 17 -1 17 -89 l0 -96 -2100 0 -2100 0 0 95 c0
52 2 95 3 95 2 0 30 -10 63 -21 45 -17 83 -22 164 -23 123 -1 201 21 297 83
56 36 163 143 163 162 0 20 19 7 40 -26z m670 -945 l0 -430 -700 0 -700 0 0
423 c0 233 3 427 7 430 3 4 318 7 700 7 l693 0 0 -430z m1240 -310 l0 -740
-540 0 -540 0 0 740 0 740 540 0 540 0 0 -740z m-1240 -510 l0 -230 -700 0
-700 0 0 230 0 230 700 0 700 0 0 -230z m2800 0 l0 -230 -700 0 -700 0 0 230
0 230 700 0 700 0 0 -230z"/>
<path d="M720 1380 l0 -80 75 0 75 0 0 80 0 80 -75 0 -75 0 0 -80z"/>
<path d="M1030 1380 l0 -80 75 0 75 0 0 80 0 80 -75 0 -75 0 0 -80z"/>
<path d="M1340 1380 l0 -80 75 0 75 0 0 80 0 80 -75 0 -75 0 0 -80z"/>
<path d="M2330 935 l0 -155 75 0 75 0 0 155 0 155 -75 0 -75 0 0 -155z"/>
<path d="M2640 935 l0 -155 75 0 75 0 0 155 0 155 -75 0 -75 0 0 -155z"/>
</g>
</svg>
